<?xml version="1.0" standalone="no"?>
<!DOCTYPE svg PUBLIC "-//W3C//DTD SVG 20010904//EN"
 "http://www.w3.org/TR/2001/REC-SVG-20010904/DTD/svg10.dtd">
<svg version="1.0" xmlns="http://www.w3.org/2000/svg"
 width="2000.000000pt" height="2000.000000pt" viewBox="0 0 2000.000000 2000.000000"
 preserveAspectRatio="xMidYMid meet">
<metadata>
Created by potrace 1.14, written by Peter Selinger 2001-2017
</metadata>
<g transform="translate(0.000000,2000.000000) scale(0.100000,-0.100000)"
fill="#000000" stroke="none">
<path d="M11618 19985 c-2 -3 -22 -7 -44 -10 -65 -10 -145 -36 -220 -70 -366
-167 -593 -571 -579 -1030 6 -197 35 -315 113 -465 160 -309 479 -494 847
-495 180 0 280 22 415 90 104 52 153 87 238 169 266 256 389 718 293 1096 -31
122 -97 259 -166 350 -138 180 -340 304 -572 351 -55 11 -317 22 -325 14z
m267 -180 c98 -16 216 -60 300 -113 22 -14 77 -63 122 -108 65 -66 90 -101
127 -176 67 -136 88 -225 90 -383 2 -219 -33 -375 -121 -535 -191 -351 -571
-490 -957 -352 -301 108 -495 411 -491 767 4 335 145 630 375 784 91 62 205
107 295 117 27 4 51 8 53 9 5 5 163 -3 207 -10z"/>
<path d="M6669 18924 c-146 -23 -268 -83 -363 -180 -47 -47 -106 -125 -106
-140 0 -4 -6 -15 -14 -23 -18 -20 -64 -157 -71 -214 -17 -127 -5 -256 37 -382
91 -274 255 -451 493 -531 78 -27 267 -37 346 -18 19 4 39 9 44 10 38 8 149
51 196 76 140 74 287 259 328 415 18 68 -20 119 -81 108 -24 -5 -68 -51 -68
-72 0 -21 -49 -116 -85 -165 -95 -129 -290 -221 -467 -219 -145 1 -272 56
-379 163 -48 49 -125 163 -134 199 -6 27 -17 20 140 85 49 20 113 47 142 60
28 13 54 24 57 24 3 0 35 14 71 30 36 17 68 30 70 30 2 0 29 11 59 25 30 14
58 25 61 25 3 0 25 8 48 19 23 10 114 49 202 87 88 38 168 77 177 89 28 33 21
75 -25 156 -46 82 -50 87 -114 154 -149 154 -352 223 -564 189z m238 -179 c81
-24 129 -50 185 -103 48 -45 106 -128 96 -138 -3 -2 -160 -70 -349 -149 -189
-80 -353 -150 -364 -155 -11 -5 -58 -25 -105 -44 l-85 -35 -6 27 c-11 45 -10
168 2 224 38 184 191 339 376 382 72 16 174 13 250 -9z"/>
<path d="M14673 18905 c-12 -8 -54 -81 -94 -162 -39 -82 -73 -149 -74 -151 -2
-2 -50 19 -108 47 -57 28 -114 51 -125 51 -36 0 -75 -42 -74 -79 1 -46 20 -63
130 -118 54 -26 98 -48 100 -49 2 -1 -99 -205 -223 -454 -124 -249 -235 -480
-246 -514 -50 -146 2 -258 155 -334 112 -56 200 -37 200 42 0 42 -21 62 -77
71 -44 8 -103 59 -112 98 -12 48 4 91 124 334 65 131 166 336 226 456 59 119
110 217 114 217 4 0 66 -29 139 -65 72 -36 143 -65 157 -65 31 0 75 41 75 69
0 53 -17 68 -152 136 -73 37 -136 70 -140 74 -5 4 26 75 67 159 41 84 75 159
75 168 0 26 -32 72 -54 78 -35 10 -61 7 -83 -9z"/>
<path d="M4325 17633 c-23 -24 -26 -34 -22 -67 3 -21 9 -42 14 -45 4 -3 64
-71 133 -151 68 -80 127 -147 130 -150 3 -3 65 -73 136 -155 236 -272 258
-309 258 -445 0 -76 -4 -92 -33 -152 -56 -112 -184 -226 -297 -263 -165 -53
-310 6 -464 190 -28 34 -152 177 -160 185 -3 3 -34 39 -70 80 -36 41 -67 77
-70 80 -3 3 -30 34 -60 70 -132 154 -160 180 -201 180 -54 0 -89 -40 -83 -93
2 -22 73 -118 124 -167 6 -6 60 -68 125 -144 28 -33 59 -69 70 -80 11 -12 73
-83 137 -158 176 -203 259 -271 383 -313 102 -34 247 -23 354 27 25 12 48 22
51 22 11 3 68 43 115 81 264 213 327 489 170 745 -19 30 -46 69 -60 85 -15 17
-45 52 -68 79 -23 27 -46 54 -52 60 -5 6 -39 45 -75 86 -35 41 -79 91 -96 110
-18 19 -83 94 -144 165 -62 72 -122 138 -134 147 -32 27 -79 23 -111 -9z"/>
<path d="M16672 17613 c-7 -3 -61 -62 -119 -131 -58 -70 -109 -128 -114 -130
-5 -2 -46 28 -92 67 -45 38 -95 73 -109 76 -31 8 -87 -20 -90 -45 -1 -17 -1
-49 1 -67 0 -6 42 -44 91 -84 50 -40 90 -75 90 -77 0 -5 -53 -75 -66 -87 -6
-5 -78 -91 -160 -190 -82 -99 -153 -185 -159 -191 -5 -6 -26 -31 -46 -55 -21
-24 -75 -90 -122 -145 -144 -173 -171 -223 -172 -314 0 -70 30 -129 98 -192
90 -84 170 -104 213 -54 34 39 20 73 -48 118 -64 43 -93 92 -83 141 7 31 36
86 59 110 6 6 124 147 261 312 280 336 280 335 317 379 15 17 28 34 28 39 0
21 39 -2 136 -84 60 -50 119 -95 131 -100 33 -12 79 8 93 41 22 54 6 79 -120
183 l-119 99 92 110 c111 131 138 174 132 208 -9 49 -74 83 -123 63z"/>
<path d="M1742 15920 c-29 -7 -58 -31 -63 -52 -11 -51 7 -82 69 -125 31 -22
235 -160 452 -308 217 -148 397 -272 400 -275 3 -3 61 -43 130 -89 69 -46 236
-160 373 -253 175 -120 256 -170 276 -170 63 -2 104 56 82 114 -8 22 -63 65
-205 160 -10 7 -36 25 -57 41 -21 15 -41 27 -44 27 -3 0 -13 7 -22 15 -10 8
-121 85 -248 171 -330 225 -875 597 -980 669 -116 80 -124 83 -163 75z"/>
<path d="M9798 15855 c-2 -2 -61 -6 -133 -9 -145 -8 -161 -9 -375 -32 -19 -2
-51 -6 -70 -9 -19 -3 -53 -8 -75 -11 -36 -4 -238 -39 -290 -49 -332 -64 -812
-209 -1089 -329 -378 -164 -696 -331 -951 -500 -39 -26 -77 -51 -85 -56 -8 -6
-67 -47 -130 -92 -438 -311 -853 -705 -1183 -1122 -48 -61 -94 -119 -102 -129
-8 -9 -15 -22 -15 -27 0 -6 -3 -10 -7 -10 -5 0 -19 -17 -33 -38 -14 -20 -27
-39 -30 -42 -14 -14 -176 -260 -237 -360 -176 -290 -307 -556 -448 -905 -43
-108 -148 -409 -161 -465 -2 -8 -15 -55 -29 -105 -14 -49 -27 -99 -29 -110 -3
-11 -16 -67 -30 -125 -14 -58 -28 -123 -32 -145 -3 -22 -8 -43 -10 -46 -2 -4
-6 -24 -9 -45 -3 -22 -10 -59 -15 -84 -14 -65 -48 -322 -56 -410 -3 -41 -8
-86 -10 -100 -24 -140 -23 -767 1 -1015 13 -135 17 -168 20 -185 2 -10 6 -45
10 -77 3 -32 8 -71 11 -88 3 -16 7 -41 9 -55 22 -131 31 -185 46 -255 185
-891 570 -1725 1123 -2430 288 -367 622 -703 981 -986 551 -435 1140 -753
1798 -970 150 -50 361 -111 425 -124 9 -1 44 -10 77 -18 33 -9 71 -18 85 -21
14 -2 72 -13 130 -25 169 -33 193 -37 420 -67 14 -1 59 -6 100 -9 41 -3 89 -8
105 -11 123 -18 595 -24 835 -10 223 12 252 15 475 47 189 26 207 29 385 65
236 48 712 185 845 243 11 5 58 24 105 42 47 18 110 43 140 57 30 13 87 38
125 55 39 17 151 72 250 122 743 378 1402 920 1936 1590 49 61 222 299 256
351 7 11 32 49 56 85 39 58 131 210 197 324 151 261 327 658 435 978 49 148
104 325 109 351 1 6 5 20 9 31 3 11 8 31 11 45 2 14 17 75 31 135 33 132 30
119 40 180 5 28 9 52 10 55 1 3 4 19 8 35 6 29 14 79 22 140 3 17 7 41 9 55 5
22 9 56 21 160 3 23 9 79 20 190 25 247 25 750 1 1020 -6 68 -17 169 -21 192
-2 13 -9 64 -15 113 -7 50 -18 128 -27 175 -8 47 -17 99 -19 115 -3 17 -7 37
-10 45 -3 8 -7 31 -10 50 -3 19 -25 114 -50 210 -24 96 -47 186 -50 200 -3 14
-36 118 -74 231 -225 677 -553 1278 -1003 1839 -29 36 -120 144 -130 156 -7 6
-39 43 -72 80 -68 78 -332 344 -416 419 -104 93 -211 185 -257 220 -7 6 -18
15 -25 20 -99 83 -392 295 -407 295 -6 0 -10 5 -10 10 0 6 -4 10 -9 10 -5 0
-43 22 -83 49 -138 91 -352 212 -548 309 -107 53 -197 97 -200 98 -3 0 -23 9
-45 18 -106 47 -118 52 -240 99 -124 49 -290 107 -304 107 -6 0 -19 4 -29 9
-14 8 -117 40 -182 57 -177 46 -330 84 -350 88 -14 2 -61 11 -105 21 -90 18
-217 41 -285 50 -25 3 -56 8 -70 10 -14 2 -52 7 -85 10 -33 3 -71 8 -85 10
-23 3 -95 10 -250 21 -67 5 -568 13 -572 9z"/>
<path d="M17630 15575 c-206 -46 -432 -197 -549 -368 -44 -65 -88 -164 -105
-237 -19 -79 -18 -222 1 -307 17 -76 75 -207 123 -280 97 -144 292 -265 466
-289 27 -3 57 -8 68 -10 24 -4 72 20 80 41 11 31 6 61 -14 83 -12 12 -24 22
-28 23 -4 0 -15 2 -24 4 -9 2 -34 6 -55 9 -168 24 -320 141 -403 311 -51 104
-62 152 -62 255 0 104 25 185 88 287 38 61 164 194 183 193 3 0 22 -24 41 -53
19 -28 39 -56 43 -62 4 -5 60 -84 124 -175 63 -91 177 -252 252 -358 75 -106
146 -209 158 -227 15 -23 36 -38 62 -46 38 -11 42 -10 88 24 123 91 231 247
259 372 28 125 30 208 8 299 -57 241 -208 411 -433 489 -74 26 -102 30 -201
32 -63 1 -140 -4 -170 -10z m265 -160 c154 -30 301 -163 360 -325 37 -102 26
-281 -24 -378 -23 -46 -108 -142 -124 -142 -7 1 -59 69 -117 152 -58 83 -123
176 -144 207 -21 31 -96 137 -166 236 -69 99 -130 185 -134 192 -9 16 33 36
109 52 33 7 65 14 70 15 20 5 131 -1 170 -9z"/>
<path d="M920 13908 c-164 -44 -275 -164 -349 -378 -18 -52 -42 -117 -52 -145
-10 -27 -59 -167 -109 -309 -83 -237 -90 -262 -79 -293 6 -18 19 -38 29 -43
11 -6 97 -37 192 -71 95 -33 182 -64 193 -69 11 -4 94 -34 185 -65 91 -32 235
-82 320 -112 156 -54 290 -101 475 -166 55 -20 172 -61 259 -92 166 -58 198
-62 230 -26 9 10 45 101 80 202 35 101 92 263 126 359 100 284 110 321 115
428 7 164 -39 293 -143 396 -106 106 -285 177 -437 172 -149 -5 -268 -64 -367
-183 -34 -40 -38 -43 -38 -22 0 70 -59 195 -121 258 -102 104 -235 161 -384
166 -49 2 -106 -1 -125 -7z m204 -189 c47 -13 104 -35 126 -49 8 -6 24 -14 35
-19 36 -16 93 -85 119 -141 45 -100 40 -189 -22 -360 -17 -47 -63 -177 -102
-290 -39 -113 -75 -208 -79 -213 -4 -4 -79 18 -167 48 -185 65 -508 178 -511
180 -1 0 17 57 41 125 24 69 73 208 109 310 77 220 97 264 144 319 71 84 195
120 307 90z m983 -234 c174 -66 244 -159 250 -332 2 -79 -2 -105 -27 -185 -33
-105 -135 -402 -149 -433 -5 -11 -24 -63 -41 -115 -18 -52 -34 -96 -34 -97 -1
-1 -67 20 -147 48 -79 28 -155 54 -169 59 -14 4 -90 31 -170 60 -80 28 -169
59 -198 67 -50 15 -53 18 -47 42 8 36 211 609 235 665 37 88 122 186 191 221
79 41 196 41 306 0z"/>
<path d="M19297 13159 c-6 -4 -100 -37 -207 -74 -107 -37 -256 -89 -330 -115
-74 -27 -259 -92 -410 -144 -301 -105 -322 -117 -314 -178 9 -64 73 -94 141
-66 15 6 33 12 38 13 6 2 141 49 300 105 408 144 373 135 510 133 152 -2 297
-57 390 -148 63 -62 87 -111 95 -197 8 -97 49 -131 119 -102 38 16 50 44 45
109 -4 56 -57 172 -101 220 -93 102 -232 173 -370 191 -29 4 -51 10 -48 14 2
4 42 19 87 35 126 41 154 55 172 85 24 41 20 68 -15 101 -31 28 -69 35 -102
18z"/>
<path d="M1035 9948 c-103 -39 -167 -129 -167 -234 -1 -97 55 -178 150 -221
45 -21 63 -24 113 -20 68 7 104 24 150 69 113 114 90 302 -47 384 -49 29 -152
40 -199 22z"/>
<path d="M19225 9947 c-109 -44 -167 -128 -166 -239 1 -206 263 -313 410 -167
153 150 61 402 -152 415 -35 2 -75 -2 -92 -9z"/>
<path d="M17899 7384 c-9 -11 -19 -24 -22 -30 -10 -17 12 -71 31 -79 32 -12
597 -226 612 -232 9 -3 -13 -15 -50 -27 -196 -67 -324 -236 -335 -442 -8 -143
50 -286 161 -397 79 -79 161 -130 279 -170 75 -25 108 -31 195 -33 122 -3 183
10 285 61 255 127 346 437 199 681 -18 30 -29 54 -25 54 4 0 36 -11 71 -25 80
-31 114 -32 134 -3 40 57 11 95 -104 137 -47 18 -94 36 -105 41 -23 10 -56 22
-70 26 -16 4 -227 85 -260 99 -16 7 -86 34 -155 60 -225 85 -334 126 -410 155
-41 16 -124 47 -185 70 -60 23 -118 45 -128 51 -9 5 -36 12 -60 15 -33 5 -45
2 -58 -12z m956 -461 c220 -76 358 -248 350 -438 -9 -230 -190 -389 -433 -379
-137 5 -256 53 -372 151 -68 57 -128 182 -133 275 -16 301 278 497 588 391z"/>
<path d="M1808 7355 c-1 -1 -22 -5 -45 -9 -137 -18 -325 -111 -437 -216 -48
-45 -136 -152 -136 -166 0 -4 -6 -15 -14 -23 -7 -9 -25 -45 -39 -81 -127 -322
-42 -675 223 -924 59 -56 107 -67 135 -30 30 40 19 67 -64 151 -139 142 -210
297 -217 473 -11 318 185 566 523 662 111 32 278 31 383 -1 273 -84 452 -334
453 -631 0 -90 -6 -152 -19 -193 -7 -22 14 -76 30 -78 52 -6 61 -4 81 17 31
33 44 120 41 264 -3 91 -9 145 -25 200 -87 300 -301 505 -599 574 -53 12 -263
21 -274 11z"/>
<path d="M17403 6105 c-19 -8 -35 -23 -38 -37 -13 -51 7 -70 151 -146 77 -39
153 -79 169 -89 17 -9 39 -21 50 -26 32 -16 293 -155 370 -197 39 -20 120 -63
180 -95 61 -32 133 -70 160 -85 42 -23 175 -93 302 -160 55 -29 100 -10 109
47 7 47 16 40 -301 208 -60 32 -132 70 -160 85 -27 15 -95 51 -150 80 -55 29
-131 69 -170 90 -38 21 -115 61 -170 90 -55 29 -127 67 -160 85 -287 155 -308
164 -342 150z"/>
<path d="M2160 5781 c-70 -19 -139 -51 -210 -96 -55 -34 -160 -140 -180 -180
-8 -17 -19 -37 -26 -45 -26 -33 -57 -156 -60 -235 -4 -111 10 -176 59 -275
144 -294 488 -402 792 -248 182 93 297 242 342 443 8 39 4 161 -7 210 -17 75
-84 204 -138 261 -77 84 -175 142 -292 172 -62 16 -210 12 -280 -7z m265 -126
c22 -4 65 -20 95 -36 257 -130 312 -472 109 -680 -247 -254 -642 -220 -775 67
-47 103 -55 190 -26 295 37 132 126 238 255 304 112 56 225 73 342 50z"/>
<path d="M17584 5416 c-106 -111 -117 -307 -25 -473 l29 -52 -27 14 c-14 9
-57 35 -94 59 -76 49 -110 50 -136 5 -27 -49 -11 -70 129 -160 72 -46 172
-111 223 -144 51 -33 131 -84 178 -114 46 -30 134 -87 194 -126 61 -39 122
-79 137 -88 29 -18 65 -22 84 -9 20 13 36 54 30 77 -6 25 -17 33 -301 214
-259 166 -292 195 -355 306 -45 79 -66 212 -47 292 9 38 36 80 65 105 30 25
52 58 52 78 0 19 -48 60 -71 60 -13 0 -40 -18 -65 -44z"/>
<path d="M3148 4618 c-46 -35 -92 -70 -103 -80 -11 -9 -63 -49 -116 -90 -268
-203 -516 -395 -531 -410 -39 -39 -6 -108 51 -108 16 0 42 10 58 23 93 77 515
395 550 414 56 32 143 39 224 19 210 -54 342 -252 279 -418 -34 -89 -83 -135
-389 -365 -31 -23 -60 -46 -66 -50 -5 -5 -56 -44 -113 -87 -110 -85 -126 -110
-101 -155 21 -38 67 -40 116 -4 156 114 552 424 583 457 141 148 169 290 90
446 -77 152 -258 269 -425 274 l-54 1 24 20 c13 11 40 33 59 48 42 33 48 75
16 107 -33 33 -63 24 -152 -42z"/>
<path d="M17005 4388 c-112 -24 -213 -84 -297 -178 -201 -221 -193 -552 19
-780 176 -191 435 -259 658 -175 183 68 333 249 361 435 6 44 7 151 1 180 -22
104 -47 165 -98 240 -146 216 -407 329 -644 278z m211 -129 c189 -48 354 -208
394 -384 27 -120 7 -233 -61 -334 -125 -187 -363 -242 -577 -132 -55 28 -74
43 -143 114 -148 153 -178 366 -74 542 89 153 290 237 461 194z"/>
<path d="M15918 3916 c-40 -30 -38 -53 23 -231 106 -312 350 -1029 368 -1082
10 -29 15 -53 11 -53 -4 0 -27 13 -51 30 -24 16 -50 30 -56 30 -7 0 -13 5 -13
10 0 6 -4 10 -9 10 -7 0 -383 221 -546 321 -16 11 -37 22 -45 26 -8 3 -26 14
-40 23 -45 31 -114 67 -142 73 -21 6 -31 1 -51 -23 -30 -35 -33 -17 53 -320
34 -118 63 -222 65 -231 2 -8 23 -85 48 -170 77 -267 88 -311 84 -315 -2 -2
-168 105 -368 237 -697 463 -784 519 -801 519 -21 0 -66 -40 -69 -60 -5 -50 2
-57 144 -150 242 -160 813 -537 1001 -661 98 -66 189 -119 201 -119 35 0 66
31 66 65 1 17 -22 111 -51 210 -28 99 -53 189 -55 200 -3 11 -12 43 -20 70
-13 43 -86 306 -131 474 -8 29 -17 58 -20 62 -3 5 -3 9 -1 9 5 0 769 -446 842
-492 67 -41 88 -47 120 -34 61 25 66 8 -179 742 -125 373 -231 688 -235 699
-5 11 -14 39 -21 62 -7 23 -22 52 -32 63 -21 23 -65 26 -90 6z"/>
<path d="M4050 3499 c-186 -36 -378 -194 -466 -384 -167 -363 52 -748 426
-747 47 0 98 5 113 11 38 15 33 4 -38 -71 -53 -57 -103 -110 -304 -328 -28
-30 -51 -62 -52 -70 -5 -48 22 -80 66 -80 32 0 72 38 264 249 13 14 74 80 135
145 61 65 118 127 126 136 8 10 62 68 120 130 58 62 113 122 122 132 9 11 66
72 126 136 174 186 182 196 182 220 0 29 -42 72 -71 72 -15 0 -45 -23 -84 -64
l-62 -64 5 71 c5 91 -18 192 -60 266 -65 114 -195 212 -318 240 -53 12 -167
12 -230 0z m245 -142 c103 -35 208 -141 240 -244 17 -53 23 -164 12 -213 -40
-178 -181 -335 -370 -409 -55 -22 -168 -25 -232 -6 -319 91 -385 475 -126 732
141 141 317 193 476 140z"/>
<path d="M5225 2699 c-11 -6 -85 -109 -165 -230 -80 -121 -150 -226 -155 -232
-27 -32 -97 -149 -121 -202 -38 -86 -44 -201 -15 -278 42 -114 116 -199 233
-269 152 -90 310 -104 437 -37 78 40 147 124 340 413 106 158 196 298 202 312
11 30 -6 65 -40 84 -41 22 -66 -7 -265 -305 -107 -160 -212 -308 -233 -328
-79 -77 -200 -106 -296 -69 -228 87 -319 284 -216 468 9 18 101 157 203 310
126 189 186 288 186 306 0 17 -10 34 -26 47 -29 23 -39 24 -69 10z"/>
<path d="M13760 1928 c-143 -25 -275 -191 -297 -374 -3 -27 -7 -50 -8 -52 -2
-2 -20 40 -40 93 -40 102 -61 126 -104 119 -32 -6 -50 -23 -56 -53 -3 -19 62
-198 130 -356 7 -16 28 -70 48 -120 154 -392 210 -522 228 -536 39 -29 102 3
102 53 0 13 -50 147 -111 298 -60 151 -113 291 -117 310 -42 182 39 407 168
469 23 11 58 21 77 22 67 4 96 38 78 90 -12 35 -43 47 -98 37z"/>
<path d="M6532 1914 c-115 -19 -212 -72 -302 -163 -198 -201 -261 -496 -152
-716 64 -130 177 -230 327 -290 91 -37 216 -43 320 -16 139 36 175 63 155 116
-16 41 -44 45 -124 17 -132 -46 -248 -35 -371 33 -156 87 -233 226 -222 404 4
70 27 173 42 189 3 3 312 -133 528 -232 226 -104 280 -124 307 -114 51 17 96
170 87 297 -13 185 -113 340 -276 424 -107 56 -202 71 -319 51z m157 -129
c104 -19 219 -109 271 -213 37 -74 49 -180 28 -249 l-13 -41 -40 18 c-22 10
-91 41 -152 69 -62 28 -114 51 -117 51 -2 0 -42 17 -88 39 -45 21 -114 53
-153 71 -38 18 -89 41 -113 51 l-43 19 21 29 c30 43 95 97 149 122 85 41 157
51 250 34z"/>
<path d="M9210 1632 c-29 -9 -50 -35 -50 -62 0 -18 39 -89 111 -201 62 -96
136 -212 166 -259 30 -47 87 -136 127 -199 57 -89 73 -121 70 -145 -1 -17 -5
-80 -8 -141 -4 -60 -8 -141 -11 -180 -3 -38 -7 -108 -10 -155 -3 -47 -7 -117
-10 -157 -4 -65 -3 -75 18 -99 20 -23 28 -26 59 -20 56 10 55 9 73 296 8 121
14 221 20 335 3 50 7 104 8 121 2 18 16 47 32 66 17 19 44 52 62 74 17 21 69
84 115 139 46 55 101 123 123 149 22 27 57 70 79 95 21 25 46 55 55 66 65 78
101 129 101 145 0 31 -39 70 -70 70 -38 0 -7 35 -463 -524 -18 -22 -43 -54
-57 -72 -14 -18 -28 -33 -31 -34 -4 0 -62 87 -130 193 -67 105 -155 242 -194
302 -39 61 -81 126 -93 147 -23 36 -64 59 -92 50z"/>
<path d="M7636 1497 c-9 -7 -28 -48 -41 -92 -13 -44 -66 -224 -119 -400 -52
-176 -108 -366 -125 -422 -17 -56 -31 -109 -31 -118 0 -9 11 -27 24 -40 18
-18 31 -23 53 -19 49 9 43 -7 167 414 30 102 63 204 73 226 65 144 233 264
371 266 54 1 82 -8 156 -48 50 -28 104 18 89 75 -11 41 -105 81 -202 85 -91 4
-227 -55 -310 -135 -28 -27 -51 -48 -51 -46 0 2 13 48 29 101 30 100 30 138
-2 158 -19 12 -61 9 -81 -5z"/>
<path d="M12739 1500 c-26 -15 -30 -53 -14 -117 84 -333 147 -610 150 -661 4
-74 -11 -133 -48 -187 -78 -115 -288 -174 -424 -119 -101 40 -155 119 -194
281 -11 48 -31 131 -44 183 -13 52 -26 106 -29 120 -2 14 -16 72 -31 130 -15
58 -29 114 -31 125 -11 59 -51 85 -97 64 -32 -15 -46 -46 -36 -84 12 -48 71
-298 73 -309 1 -6 5 -20 9 -31 3 -11 9 -31 11 -45 78 -380 143 -494 321 -560
157 -58 406 -5 533 114 78 73 119 164 127 283 3 48 -16 149 -64 342 -23 91
-43 174 -45 185 -21 110 -69 273 -83 284 -20 14 -61 15 -84 2z"/>
<path d="M10989 1216 c-2 -2 -22 -6 -45 -9 -86 -12 -215 -78 -280 -144 -65
-65 -120 -153 -149 -238 -23 -71 -29 -118 -28 -223 4 -276 180 -508 436 -575
111 -29 261 -15 379 36 129 55 241 180 297 332 23 62 25 85 26 205 0 116 -4
145 -24 209 -60 182 -198 326 -369 383 -50 17 -231 35 -243 24z m249 -167 c80
-39 124 -78 173 -154 96 -145 111 -363 35 -514 -39 -79 -83 -129 -149 -172
-73 -48 -149 -70 -235 -70 -88 0 -104 4 -189 46 -118 58 -202 168 -241 315 -9
36 -10 199 -1 239 41 180 197 331 361 348 29 3 54 6 56 8 11 9 140 -21 190
-46z"/>
</g>
</svg>
